<?xml version="1.0" encoding="UTF-8"?>
<!DOCTYPE svg PUBLIC "-//W3C//DTD SVG 1.1//EN" "http://www.w3.org/Graphics/SVG/1.1/DTD/svg11.dtd">
<svg version="1.1" xmlns="http://www.w3.org/2000/svg" xmlns:xlink="http://www.w3.org/1999/xlink" x="0" y="0" width="2289" height="540" viewBox="0, 0, 2289, 540">
  <g id="Layer_1">
    <path d="M893.413,383.397 L862.286,528.114 L790.693,528.114 L908.977,3.642 L993.786,3.642 L1105.067,528.114 L1032.695,528.114 L1002.346,383.397 L893.413,383.397 z M993.786,325.033 L969.662,199.732 C962.659,163.936 955.655,117.27 950.221,79.905 L947.095,79.905 C941.661,118.036 933.853,166.27 926.875,199.732 L901.973,325.033 L993.786,325.033 z M1378.34,-10.352 L1378.34,430.853 C1378.34,459.659 1379.896,501.681 1381.439,528.127 L1318.419,528.127 L1313.75,482.227 L1311.416,482.227 C1298.965,508.672 1270.172,534.365 1232.054,534.365 C1162.017,534.365 1119.217,458.09 1119.217,340.61 C1119.217,206.762 1176.011,143.729 1235.945,143.729 C1266.281,143.729 1290.405,157.749 1303.634,186.529 L1305.19,186.529 L1305.19,-10.352 L1378.34,-10.352 z M1305.177,293.906 C1305.177,286.915 1305.177,278.355 1304.399,270.547 C1300.508,236.32 1281.053,206.749 1254.608,206.749 C1208.682,206.749 1193.131,270.547 1193.131,340.597 C1193.131,418.415 1213.364,472.875 1252.274,472.875 C1268.615,472.875 1290.392,464.315 1302.843,419.194 C1304.399,412.968 1305.177,403.617 1305.177,395.083 L1305.177,293.906 z M1552.576,534.352 C1477.104,534.352 1422.619,469.763 1422.619,339.832 C1422.619,202.08 1487.195,143.716 1556.453,143.716 C1631.159,143.716 1684.841,210.64 1684.841,338.262 C1684.841,488.452 1610.914,534.352 1553.341,534.352 L1552.576,534.352 z M1554.897,476.779 C1600.019,476.779 1610.148,396.626 1610.148,339.053 C1610.148,282.233 1600.032,201.314 1553.354,201.314 C1505.093,201.314 1495.768,282.233 1495.768,339.053 C1495.768,402.073 1506.663,476.779 1554.132,476.779 L1554.897,476.779 z M1728.938,-10.352 L1802.075,-10.352 L1802.075,192.741 L1803.631,192.741 C1823.086,158.514 1849.544,143.716 1883.006,143.716 C1947.583,143.716 1988.061,216.865 1988.061,332.815 C1988.061,468.206 1932.81,534.352 1870.555,534.352 C1833.202,534.352 1812.191,514.106 1795.836,480.644 L1792.75,480.644 L1788.846,528.114 L1725.826,528.114 C1727.382,502.446 1728.938,459.646 1728.938,430.84 L1728.938,-10.352 z M1802.075,394.266 C1802.075,402.852 1802.853,411.412 1805.188,417.624 C1816.847,463.55 1839.428,472.875 1854.2,472.875 C1897.779,472.875 1914.121,415.303 1914.121,337.484 C1914.121,265.113 1897.014,206.749 1853.422,206.749 C1829.298,206.749 1809.844,235.542 1804.396,262.778 C1802.84,270.56 1802.062,280.689 1802.062,288.458 L1802.062,394.266 L1802.075,394.266 z M2095.996,353.813 C2096.774,451.086 2138.783,475.197 2183.14,475.197 C2209.598,475.197 2232.165,468.984 2248.507,461.19 L2259.402,514.106 C2236.834,525.779 2202.594,532.018 2169.132,532.018 C2074.207,532.018 2024.403,460.424 2024.403,343.697 C2024.403,219.965 2081.197,143.703 2159.794,143.703 C2238.391,143.703 2274.966,219.187 2274.966,314.138 C2274.966,332.802 2274.174,344.488 2273.409,354.591 L2095.996,353.813 z M2205.707,301.687 C2206.485,234.763 2183.14,198.98 2154.36,198.98 C2116.216,198.98 2099.095,254.231 2096.774,301.687 L2205.707,301.687 z" fill="#000000"/>
    <path d="M378.462,5.043 L596.963,5.043 L596.963,528.114 L378.462,5.043 z M224.536,5.043 L5.879,5.043 L5.879,528.114 L224.536,5.043 z M301.512,197.813 L440.729,528.114 L349.5,528.114 L307.867,422.916 L205.964,422.916 L301.512,197.813 z" fill="#CC2131"/>
    <path d="M2268.753,142.743 C2273.181,142.763 2277.417,144.552 2280.52,147.711 C2283.623,150.87 2285.335,155.137 2285.276,159.565 C2285.276,169.059 2277.948,176.464 2268.675,176.464 C2259.479,176.464 2251.996,169.072 2251.996,159.565 C2251.972,155.121 2253.717,150.85 2256.846,147.694 C2259.975,144.538 2264.231,142.757 2268.675,142.743 L2268.753,142.743 z M2268.675,145.35 C2261.282,145.35 2255.212,151.718 2255.212,159.565 C2255.212,167.567 2261.282,173.845 2268.753,173.845 C2276.224,173.922 2282.203,167.567 2282.203,159.643 C2282.203,151.718 2276.224,145.35 2268.753,145.35 L2268.675,145.35 z M2265.536,169.37 L2262.553,169.37 L2262.553,150.59 C2264.123,150.369 2265.627,150.136 2267.871,150.136 C2270.711,150.136 2272.566,150.745 2273.694,151.562 C2274.823,152.38 2275.419,153.651 2275.419,155.453 C2275.419,157.918 2273.772,159.422 2271.749,160.019 L2271.749,160.161 C2273.396,160.46 2274.524,161.964 2274.888,164.727 C2275.342,167.645 2275.782,168.76 2276.094,169.37 L2272.955,169.37 C2272.501,168.76 2272.06,167.048 2271.684,164.584 C2271.23,162.185 2270.037,161.29 2267.637,161.29 L2265.549,161.29 L2265.549,169.37 L2265.536,169.37 z M2265.536,158.968 L2267.702,158.968 C2270.167,158.968 2272.281,158.073 2272.281,155.752 C2272.281,154.105 2271.074,152.457 2267.702,152.457 C2266.743,152.457 2266.055,152.535 2265.536,152.613 L2265.536,158.968 z M625.769,5.043 C630.197,5.063 634.433,6.852 637.536,10.011 C640.639,13.17 642.351,17.437 642.293,21.865 C642.293,31.359 634.965,38.764 625.691,38.764 C616.496,38.764 609.012,31.372 609.012,21.865 C608.988,17.421 610.733,13.15 613.862,9.994 C616.991,6.838 621.247,5.057 625.691,5.043 L625.769,5.043 z M625.691,7.65 C618.286,7.65 612.229,14.018 612.229,21.865 C612.229,29.867 618.286,36.145 625.769,36.145 C633.24,36.222 639.232,29.867 639.232,21.943 C639.232,14.018 633.24,7.65 625.769,7.65 L625.691,7.65 z M622.553,31.67 L619.557,31.67 L619.557,12.89 C621.314,12.598 623.093,12.451 624.874,12.449 C627.715,12.449 629.582,13.032 630.698,13.862 C631.826,14.68 632.423,15.964 632.423,17.753 C632.423,20.218 630.775,21.722 628.752,22.319 L628.752,22.461 C630.399,22.76 631.528,24.264 631.904,27.04 C632.345,29.958 632.799,31.073 633.097,31.683 L629.958,31.683 C629.504,31.073 629.05,29.361 628.687,26.897 C628.233,24.498 627.04,23.603 624.641,23.603 L622.553,23.603 L622.553,31.67 z M622.553,21.268 L624.719,21.268 C627.183,21.268 629.284,20.373 629.284,18.052 C629.284,16.405 628.091,14.757 624.719,14.757 C623.746,14.757 623.071,14.835 622.553,14.913 L622.553,21.268 z" fill="#000000"/>
  </g>
</svg>
