<?xml version="1.0" encoding="UTF-8"?>
<!DOCTYPE svg PUBLIC "-//W3C//DTD SVG 1.1//EN" "http://www.w3.org/Graphics/SVG/1.1/DTD/svg11.dtd">
<svg version="1.1" xmlns="http://www.w3.org/2000/svg" xmlns:xlink="http://www.w3.org/1999/xlink" x="0" y="0" width="367.7" height="78.1" viewBox="0, 0, 367.7, 78.1">
  <g id="Layer_1">
    <path d="M95.3,38.6 C95.3,34 91.7,30.2 87,30.2 C82.4,30.2 78.7,34 78.7,38.6 C78.7,43.2 82.3,46.9 87,46.9 C91.7,46.9 95.3,43.2 95.3,38.6 M109.7,38.7 C109.7,50.6 99.6,60.1 87.1,60.1 C74.5,60.1 64.5,50.6 64.5,38.7 C64.5,26.7 74.6,17.1 87.1,17.1 C99.6,17 109.7,26.7 109.7,38.7 M154.8,30 C154.8,22 149.2,15 140.9,15 L129.4,15 L129.4,45.3 L140.9,45.3 C149.2,45.3 154.8,38 154.8,30 M170.3,30 C170.3,47.1 158.2,58.8 141.2,58.8 L116.6,58.8 C115.4,58.8 114.5,57.9 114.5,56.8 L114.5,3.4 C114.5,2.3 115.4,1.4 116.6,1.4 L141.2,1.4 C158.3,1.5 170.3,12.9 170.3,30 M194.4,46.9 C199,46.9 202.7,43.1 202.7,38.5 C202.7,33.9 199.1,30.1 194.4,30.1 C189.8,30.1 186.1,33.9 186.1,38.5 C186.1,43.2 189.8,46.9 194.4,46.9 M192.2,17 C197.1,17 201,18.8 202.7,21.3 L202.7,20.1 C202.7,19 203.6,18.2 204.6,18.2 L215,18.2 C216.1,18.2 216.9,19 216.9,20.1 L216.9,56.9 C216.9,58 216.1,58.8 215,58.8 L204.7,58.8 C203.6,58.8 202.8,58 202.8,56.9 L202.8,55.7 C201.1,58.2 197.1,60 192.2,60 C181.8,60 171.8,51.7 171.8,38.4 C171.8,25.1 181.8,17 192.2,17 M241.4,46.9 C246,46.9 249.7,43.1 249.7,38.5 C249.7,33.9 246.1,30.1 241.4,30.1 C236.8,30.1 233.1,33.9 233.1,38.5 C233.1,43.2 236.8,46.9 241.4,46.9 M238.9,17 C243.9,17 247.8,18.9 249.6,21.1 L249.6,3.4 C249.6,2.3 250.5,1.5 251.5,1.5 L262,1.5 C263.1,1.5 263.9,2.3 263.9,3.4 L263.9,57 C263.9,58.1 263.1,58.9 262,58.9 L251.7,58.9 C250.6,58.9 249.8,58.1 249.8,57 L249.8,55.8 C247.7,58.3 244.1,60.1 239.2,60.1 C228.8,60.1 218.8,51.8 218.8,38.5 C218.8,25.2 228.7,17 238.9,17 M288.4,46.9 C293,46.9 296.7,43.1 296.7,38.5 C296.7,33.9 293.1,30.1 288.4,30.1 C283.8,30.1 280.1,33.9 280.1,38.5 C280.2,43.2 283.8,46.9 288.4,46.9 M286,17 C291,17 294.9,18.9 296.7,21.1 L296.7,3.4 C296.7,2.3 297.6,1.5 298.6,1.5 L309,1.5 C310.1,1.5 310.9,2.3 310.9,3.4 L310.9,57 C310.9,58.1 310.1,58.9 309,58.9 L298.7,58.9 C297.6,58.9 296.8,58.1 296.8,57 L296.8,55.8 C294.7,58.3 291.1,60.1 286.2,60.1 C275.8,60.1 265.8,51.8 265.8,38.5 C265.8,25.2 275.7,17 286,17 M345.5,64.7 C342.9,73.3 336.9,78.1 327.5,78.1 C322.4,78.1 317.4,76.4 314.2,73.6 C313.7,73.1 313.4,72.5 313.4,71.9 C313.4,71.4 313.6,70.8 314.1,70.2 L318,64.3 C318.6,63.5 319.5,63.4 319.7,63.4 C320.6,63.4 321,63.6 321.8,64.2 C323,65 324.7,66 326.6,66 C328.2,66 330.3,65.3 331.1,62.9 L332.4,58.8 L326,58.8 C324.7,58.8 323.9,57.9 323.5,56.8 L313,21.5 C312.8,20.6 312.7,20.1 312.7,19.8 C312.7,19 313.3,18.3 314.4,18.3 L326.8,18.3 C327.9,18.3 328.5,19.3 328.8,20.3 L335.7,45.7 L336.2,45.7 L341.7,20.3 C341.9,19.3 342.6,18.3 343.7,18.3 L356.3,18.3 C357.5,18.3 358,19 358,19.8 C358,20.1 357.9,20.6 357.7,21.5 L345.5,64.7 M49.7,50.9 C44.7,57.8 36.5,60.1 29.2,60.1 C12.4,60.1 0,47.6 0,30.2 C0.1,13.5 13.5,0.2 31,0.2 C44,0.2 54.4,5.7 59.1,16.2 C59.7,17.4 60.1,19.4 56.6,20 L47.4,21.6 C45.3,22 44.1,20.6 43.7,20 C41,16.3 36.6,13.8 31.3,13.8 C22.1,13.8 15.6,20.8 15.6,30.1 C15.6,40.4 23,46.4 31.1,46.4 C36.5,46.4 40.9,44.4 43.8,40.6 L35.7,40.6 C34.5,40.6 33.6,39.7 33.6,38.6 L33.6,30.9 C33.6,29.8 34.5,28.9 35.7,28.9 L60.4,28.9 C61.6,28.9 62.5,29.8 62.5,30.9 L62.5,56.8 C62.5,57.9 61.6,58.8 60.4,58.8 L51.8,58.8 C50.6,58.8 49.7,57.9 49.7,56.8 L49.7,50.9 M359.8,0 C355.4,0 351.8,3.6 351.8,8 C351.8,12.4 355.4,16 359.8,16 C364.2,16 367.8,12.4 367.8,8 C367.8,3.6 364.2,0 359.8,0 z M359.8,14.4 C356.3,14.4 353.4,11.5 353.4,8 C353.4,4.5 356.3,1.6 359.8,1.6 C363.3,1.6 366.2,4.5 366.2,8 C366.2,11.5 363.3,14.4 359.8,14.4 z" fill="#00A53F"/>
    <path d="M361.4,6.5 C361.4,6.1 361.3,5.8 361,5.7 C360.8,5.5 360.4,5.3 360.1,5.3 L358.7,5.3 L358.7,7.6 L360.1,7.6 C360.5,7.6 360.8,7.5 361,7.2 C361.2,7 361.4,6.8 361.4,6.5 z M358.3,12.4 L356.8,12.4 C356.7,12.4 356.7,12.4 356.6,12.3 C356.6,12.2 356.5,12.2 356.5,12.1 L356.5,3.8 C356.5,3.7 356.5,3.7 356.6,3.6 C356.7,3.6 356.7,3.5 356.8,3.5 L360.1,3.5 C361.2,3.5 362,3.7 362.6,4.3 C363.2,4.9 363.5,5.6 363.5,6.4 C363.5,7 363.4,7.5 363,7.9 C362.6,8.4 362.3,8.7 361.8,9 L363.7,11.9 C363.8,12 363.8,12.1 363.7,12.3 C363.7,12.4 363.6,12.4 363.5,12.4 L362,12.4 C361.9,12.4 361.8,12.4 361.6,12.3 C361.5,12.3 361.5,12.2 361.4,12.1 L359.8,9.4 L358.6,9.4 L358.6,12 C358.6,12.1 358.6,12.1 358.5,12.2 C358.4,12.3 358.4,12.4 358.3,12.4 z" fill="#00A53F"/>
  </g>
</svg>
