<?xml version="1.0" encoding="UTF-8"?>
<!DOCTYPE svg PUBLIC "-//W3C//DTD SVG 1.1//EN" "http://www.w3.org/Graphics/SVG/1.1/DTD/svg11.dtd">
<svg version="1.1" xmlns="http://www.w3.org/2000/svg" xmlns:xlink="http://www.w3.org/1999/xlink" x="0" y="0" width="2280" height="580" viewBox="0, 0, 2280, 580">
  <defs>
    <clipPath id="Clip_1">
      <path d="M-1442.938,1136.16 L3748.937,1136.16 L3748.937,-550.161 L-1442.938,-550.161 z"/>
    </clipPath>
  </defs>
  <g id="Layer_1">
    <g clip-path="url(#Clip_1)">
      <path d="M419.226,46.501 C392.57,16.122 344.385,3.098 282.745,3.098 L103.844,3.098 C91.238,3.092 80.5,12.255 78.525,24.704 L4.067,497.114 C3.368,501.549 4.647,506.068 7.566,509.48 C10.485,512.891 14.751,514.854 19.242,514.851 L129.688,514.851 L157.426,338.933 L156.567,344.442 C158.503,332.017 169.197,322.851 181.774,322.836 L234.258,322.836 C337.363,322.836 418.095,280.962 441.678,159.831 C442.379,156.248 442.984,152.762 443.509,149.354 C450.515,104.583 443.461,74.109 419.242,46.517" fill="#003087"/>
      <path d="M1771.327,271.298 C1764.575,315.624 1730.722,315.624 1697.983,315.624 L1679.352,315.624 L1692.425,232.863 C1693.222,227.864 1697.521,224.186 1702.585,224.186 L1711.135,224.186 C1733.428,224.186 1754.479,224.186 1765.339,236.875 C1771.82,244.47 1773.779,255.742 1771.327,271.298 M1757.075,155.643 L1633.572,155.643 C1625.122,155.648 1617.927,161.789 1616.597,170.132 L1566.693,486.765 C1566.228,489.736 1567.085,492.761 1569.038,495.047 C1570.991,497.334 1573.845,498.653 1576.852,498.658 L1640.228,498.658 C1646.136,498.658 1651.167,494.36 1652.091,488.532 L1666.263,398.734 C1667.569,390.407 1674.766,384.246 1683.206,384.246 L1722.282,384.246 C1803.651,384.246 1850.594,344.903 1862.855,266.872 C1868.381,232.768 1863.078,205.956 1847.107,187.184 C1829.543,166.55 1798.412,155.627 1757.091,155.627" fill="#009CDE"/>
      <path d="M890.435,271.298 C883.684,315.624 849.83,315.624 817.076,315.624 L798.445,315.624 L811.518,232.863 C812.315,227.864 816.614,224.186 821.678,224.186 L830.229,224.186 C852.522,224.186 873.572,224.186 884.432,236.875 C890.929,244.47 892.888,255.742 890.435,271.298 M876.184,155.643 L752.681,155.643 C744.241,155.643 737.044,161.789 735.722,170.132 L685.802,486.765 C685.331,489.737 686.186,492.765 688.14,495.053 C690.094,497.341 692.952,498.658 695.961,498.658 L754.942,498.658 C763.381,498.658 770.563,492.513 771.885,484.17 L785.372,398.75 C786.678,390.407 793.875,384.262 802.315,384.262 L841.391,384.262 C922.76,384.262 969.703,344.903 981.964,266.872 C987.49,232.768 982.187,205.956 966.216,187.184 C948.652,166.55 917.521,155.627 876.2,155.627 M1162.919,384.978 C1157.187,418.764 1130.388,441.452 1096.168,441.452 C1079.018,441.452 1065.276,435.927 1056.454,425.483 C1047.697,415.134 1044.416,400.374 1047.187,383.959 C1052.505,350.46 1079.767,327.055 1113.461,327.055 C1130.26,327.055 1143.875,332.628 1152.888,343.168 C1161.948,353.788 1165.515,368.627 1162.919,384.978 M1245.34,269.865 L1186.2,269.865 C1181.12,269.859 1176.794,273.556 1176.009,278.574 L1173.429,295.101 L1169.289,289.114 C1156.486,270.534 1127.935,264.308 1099.432,264.308 C1034.098,264.308 978.286,313.824 967.426,383.243 C961.773,417.904 969.799,451.005 989.448,474.107 C1007.49,495.331 1033.238,504.167 1063.923,504.167 C1116.598,504.167 1145.802,470.35 1145.802,470.35 L1143.158,486.781 C1142.687,489.755 1143.544,492.786 1145.502,495.075 C1147.459,497.363 1150.322,498.679 1153.333,498.674 L1206.582,498.674 C1215.021,498.674 1222.219,492.545 1223.54,484.186 L1255.515,281.774 C1255.98,278.798 1255.12,275.767 1253.16,273.48 C1251.2,271.192 1248.336,269.877 1245.324,269.881" fill="#003087"/>
      <path d="M2043.81,384.978 C2038.078,418.764 2011.279,441.452 1977.059,441.452 C1959.909,441.452 1946.167,435.927 1937.346,425.483 C1928.588,415.134 1925.307,400.374 1928.078,383.959 C1933.396,350.46 1960.642,327.055 1994.352,327.055 C2011.151,327.055 2024.766,332.628 2033.779,343.168 C2042.839,353.788 2046.406,368.627 2043.81,384.978 M2126.231,269.865 L2067.091,269.865 C2062.011,269.859 2057.685,273.556 2056.9,278.574 L2054.32,295.101 L2050.18,289.114 C2037.377,270.534 2008.826,264.308 1980.323,264.308 C1915.005,264.308 1859.193,313.825 1848.317,383.243 C1842.664,417.904 1850.706,451.005 1870.355,474.107 C1888.397,495.331 1914.145,504.167 1944.83,504.167 C1997.521,504.167 2026.724,470.35 2026.724,470.35 L2024.081,486.781 C2023.6,489.752 2024.448,492.784 2026.401,495.074 C2028.354,497.364 2031.215,498.68 2034.224,498.674 L2087.457,498.674 C2095.896,498.674 2103.094,492.545 2104.431,484.186 L2136.406,281.774 C2136.872,278.798 2136.011,275.767 2134.051,273.48 C2132.091,271.192 2129.228,269.877 2126.215,269.881" fill="#009CDE"/>
      <path d="M1560.323,269.881 L1500.865,269.881 C1495.18,269.881 1489.878,272.699 1486.693,277.412 L1404.687,398.161 L1369.926,282.125 C1367.748,274.857 1361.064,269.876 1353.477,269.865 L1295.053,269.865 C1291.729,269.867 1288.61,271.471 1286.677,274.175 C1284.744,276.879 1284.234,280.349 1285.308,283.494 L1350.754,475.604 L1289.193,562.456 C1286.976,565.599 1286.694,569.715 1288.462,573.131 C1290.23,576.546 1293.754,578.692 1297.601,578.696 L1356.996,578.696 C1362.601,578.696 1367.871,575.942 1371.088,571.325 L1568.763,286.041 C1570.951,282.898 1571.211,278.8 1569.438,275.405 C1567.665,272.011 1564.153,269.882 1560.323,269.881" fill="#003087"/>
      <path d="M2195.928,164.352 L2145.228,486.781 C2144.762,489.754 2145.621,492.782 2147.577,495.069 C2149.534,497.356 2152.393,498.673 2155.403,498.674 L2206.374,498.674 C2214.813,498.674 2222.011,492.529 2223.333,484.186 L2273.317,167.537 C2273.788,164.562 2272.931,161.531 2270.973,159.243 C2269.016,156.954 2266.153,155.639 2263.142,155.643 L2206.103,155.643 C2201.03,155.63 2196.707,159.324 2195.928,164.337" fill="#009CDE"/>
      <path d="M419.226,46.501 C392.57,16.122 344.385,3.098 282.745,3.098 L103.844,3.098 C91.238,3.092 80.5,12.255 78.525,24.704 L4.067,497.114 C3.368,501.549 4.647,506.068 7.566,509.48 C10.485,512.891 14.751,514.854 19.242,514.851 L129.688,514.851 L157.426,338.933 L156.567,344.442 C158.503,332.017 169.197,322.851 181.774,322.836 L234.258,322.836 C337.363,322.836 418.095,280.962 441.678,159.831 C442.379,156.248 442.984,152.762 443.509,149.354 C450.515,104.583 443.461,74.109 419.242,46.517" fill="#003087"/>
      <path d="M187.219,149.943 C188.948,139.067 198.323,131.057 209.337,131.044 L349.592,131.044 C366.2,131.044 381.694,132.127 395.85,134.388 C403.59,135.633 411.247,137.345 418.78,139.515 C427.335,141.92 435.613,145.218 443.477,149.354 C450.515,104.567 443.445,74.109 419.226,46.501 C392.554,16.138 344.385,3.114 282.745,3.114 L103.828,3.114 C91.234,3.123 80.514,12.283 78.541,24.72 L4.051,497.082 C3.347,501.517 4.622,506.038 7.538,509.453 C10.454,512.867 14.719,514.834 19.21,514.835 L129.672,514.835 L157.411,338.901 L187.219,149.943 z" fill="#003087"/>
      <path d="M443.493,149.338 C442.947,152.841 442.336,156.334 441.662,159.815 C418.079,280.93 337.347,322.82 234.242,322.82 L181.742,322.82 C169.167,322.829 158.474,332 156.551,344.426 L129.672,514.819 L122.028,563.157 C121.413,567.041 122.53,570.999 125.085,573.988 C127.64,576.978 131.376,578.698 135.309,578.696 L228.414,578.696 C239.433,578.696 248.796,570.672 250.531,559.797 L251.439,555.053 L268.987,443.856 L270.102,437.711 C271.825,426.824 281.212,418.809 292.235,418.812 L306.168,418.812 C396.359,418.812 466.98,382.192 487.617,276.218 C496.216,231.956 491.757,194.97 468.987,169.002 C461.756,160.951 453.117,154.287 443.493,149.338" fill="#009CDE"/>
      <path d="M418.796,139.515 C415.197,138.448 411.487,137.493 407.665,136.649 C403.844,135.805 399.894,135.057 395.85,134.42 C381.678,132.111 366.2,131.029 349.576,131.029 L209.337,131.029 C198.308,131.015 188.916,139.046 187.219,149.943 L157.411,338.933 L156.551,344.426 C158.474,332 169.167,322.829 181.742,322.82 L234.242,322.82 C337.347,322.82 418.079,280.946 441.662,159.815 C442.363,156.232 442.952,152.762 443.493,149.338 C437.265,146.08 430.778,143.343 424.098,141.155 C422.363,140.581 420.595,140.04 418.796,139.499" fill="#012169"/>
    </g>
  </g>
</svg>
